<?xml version="1.0" encoding="utf-8"?>
<svg width="24px" height="24px" viewBox="0 0 24 24" fill="none" xmlns="http://www.w3.org/2000/svg">
<path d="M6.5 8C7.32843 8 8 7.32843 8 6.5C8 5.67157 7.32843 5 6.5 5C5.67157 5 5 5.67157 5 6.5C5 7.32843 5.67157 8 6.5 8Z" fill="currentColor"/>
<path d="M5 10C5 9.44772 5.44772 9 6 9H7C7.55228 9 8 9.44772 8 10V18C8 18.5523 7.55228 19 7 19H6C5.44772 19 5 18.5523 5 18V10Z" fill="currentColor"/>
<path d="M11 19H12C12.5523 19 13 18.5523 13 18V13.5C13 12.1193 14.1193 11 15.5 11C16.8807 11 18 12.1193 18 13.5V18C18 18.5523 18.4477 19 19 19H20C20.5523 19 21 18.5523 21 18V13.5C21 10.4624 18.5376 8 15.5 8C14.5055 8 13.5776 8.31958 12.8284 8.85984C12.9104 8.85984 13 8.85984 13 8.85984V10C13 9.44772 12.5523 9 12 9H11C10.4477 9 10 9.44772 10 10V18C10 18.5523 10.4477 19 11 19Z" fill="currentColor"/>
</svg>