<svg id="Layer_1" data-name="Layer 1" xmlns="http://www.w3.org/2000/svg" viewBox="0 0 275.44 117.19"><defs><style>.cls-1{fill:#359d9e;}</style></defs><polygon class="cls-1" points="144.79 38.03 144.79 4 116.38 26.63 116.38 66.12 130.59 66.12 130.59 49.11 144.79 38.03"/><polygon class="cls-1" points="144.79 66.12 159.08 66.12 159.08 49.35 144.79 38.03 144.79 66.12"/><path d="M7.34,105.09v-22h9.52a12.33,12.33,0,0,1,5.09,1,7.37,7.37,0,0,1,3.3,2.75,8.3,8.3,0,0,1,0,8.5A7.5,7.5,0,0,1,22,98.05a12.16,12.16,0,0,1-5.09,1H10.13l2.33-2.3v8.36Zm5.12-7.79-2.33-2.42h6.45a5.35,5.35,0,0,0,3.52-1A3.51,3.51,0,0,0,21.29,91a3.46,3.46,0,0,0-1.19-2.81,5.41,5.41,0,0,0-3.52-1H10.13l2.33-2.42Z"/><path d="M31.26,105.09V88.18h4.68V93l-.66-1.41a5.41,5.41,0,0,1,2.42-2.72,8.21,8.21,0,0,1,4.06-.93v4.56l-.55-.1-.52,0a4.57,4.57,0,0,0-3.3,1.17,4.71,4.71,0,0,0-1.23,3.58v8Z"/><path d="M54.55,105.35a9.77,9.77,0,0,1-4.76-1.14A8.79,8.79,0,0,1,46.5,92.13a8.42,8.42,0,0,1,3.29-3.08,9.87,9.87,0,0,1,4.76-1.12,10,10,0,0,1,4.81,1.12,8.38,8.38,0,0,1,3.3,3.08,8.47,8.47,0,0,1,1.2,4.51,8.38,8.38,0,0,1-1.2,4.49,8.52,8.52,0,0,1-3.3,3.08A9.94,9.94,0,0,1,54.55,105.35Zm0-4a4.35,4.35,0,0,0,2.22-.55,4,4,0,0,0,1.54-1.62,5.14,5.14,0,0,0,.58-2.51,5,5,0,0,0-.58-2.52,4,4,0,0,0-1.54-1.58A4.29,4.29,0,0,0,54.58,92a4.38,4.38,0,0,0-2.2.55,3.93,3.93,0,0,0-1.55,1.58,5,5,0,0,0-.59,2.52,5.14,5.14,0,0,0,.59,2.51,3.91,3.91,0,0,0,1.55,1.62A4.3,4.3,0,0,0,54.55,101.32Z"/><path d="M69.33,111.19v-23H74v3.46l-.09,5,.31,5v9.52Zm10-5.84a7.19,7.19,0,0,1-3.71-.95,6.32,6.32,0,0,1-2.5-2.87,11.78,11.78,0,0,1-.89-4.89A12.15,12.15,0,0,1,73,91.73a6,6,0,0,1,2.46-2.86,7.4,7.4,0,0,1,3.79-.94A8.58,8.58,0,0,1,83.61,89a8,8,0,0,1,3,3,10,10,0,0,1,0,9.19,8,8,0,0,1-3,3A8.58,8.58,0,0,1,79.29,105.35Zm-.82-4a4.3,4.3,0,0,0,2.19-.56,4.22,4.22,0,0,0,1.54-1.62,5.1,5.1,0,0,0,.58-2.5,5,5,0,0,0-.58-2.52,4,4,0,0,0-1.54-1.58A4.29,4.29,0,0,0,78.47,92a4.38,4.38,0,0,0-2.2.55,3.93,3.93,0,0,0-1.55,1.58,5,5,0,0,0-.58,2.52,5.1,5.1,0,0,0,.58,2.5,4.1,4.1,0,0,0,1.55,1.62A4.39,4.39,0,0,0,78.47,101.32Z"/><path d="M101.61,105.35a10.7,10.7,0,0,1-5.06-1.14,8.34,8.34,0,0,1-3.37-3.09A8.52,8.52,0,0,1,92,96.64a8.76,8.76,0,0,1,1.15-4.5,8,8,0,0,1,3.2-3.09A9.54,9.54,0,0,1,101,87.93,9.36,9.36,0,0,1,105.46,89a8,8,0,0,1,3.16,3,9,9,0,0,1,1.16,4.68c0,.19,0,.4,0,.64s0,.47-.06.68H96V95.16h11.16l-1.92.85a4.46,4.46,0,0,0-.5-2.3,3.93,3.93,0,0,0-1.48-1.52,4.25,4.25,0,0,0-2.2-.55,4.32,4.32,0,0,0-2.21.55,3.9,3.9,0,0,0-1.5,1.54,4.93,4.93,0,0,0-.53,2.34v.76a4.63,4.63,0,0,0,.63,2.45,4.15,4.15,0,0,0,1.73,1.59,5.92,5.92,0,0,0,2.64.55,6.3,6.3,0,0,0,2.34-.41A5.73,5.73,0,0,0,106,99.78l2.61,2.83a7.6,7.6,0,0,1-2.93,2A10.8,10.8,0,0,1,101.61,105.35Z"/><path d="M115.25,105.09V88.18h4.69V93l-.66-1.41a5.41,5.41,0,0,1,2.42-2.72,8.19,8.19,0,0,1,4-.93v4.56l-.55-.1-.52,0a4.59,4.59,0,0,0-3.3,1.17,4.74,4.74,0,0,0-1.22,3.58v8Z"/><path d="M129.46,92.33V88.56h11.73v3.77Zm8.93,13a6.62,6.62,0,0,1-4.65-1.53,5.86,5.86,0,0,1-1.67-4.54V84.44H137V99.18a2.35,2.35,0,0,0,.55,1.67,1.91,1.91,0,0,0,1.49.6,3.21,3.21,0,0,0,2-.63l1.29,3.46a5.21,5.21,0,0,1-1.78.8A8.74,8.74,0,0,1,138.39,105.35Z"/><path d="M149.8,85.82a3.16,3.16,0,0,1-2.23-.78,2.55,2.55,0,0,1-.85-2,2.53,2.53,0,0,1,.85-2,3.16,3.16,0,0,1,2.23-.79,3.32,3.32,0,0,1,2.22.74,2.42,2.42,0,0,1,.86,1.9,2.65,2.65,0,0,1-.85,2A3.08,3.08,0,0,1,149.8,85.82Zm-2.45,19.27V88.18h4.9v16.91Z"/><path d="M165.83,105.47a18.23,18.23,0,0,1-5.08-.71,11.76,11.76,0,0,1-3.91-1.84l1.73-3.83a12,12,0,0,0,3.33,1.65,12.44,12.44,0,0,0,3.93.64,7.79,7.79,0,0,0,2.44-.31,3.11,3.11,0,0,0,1.37-.83,1.84,1.84,0,0,0,.44-1.21,1.66,1.66,0,0,0-.7-1.4,5.57,5.57,0,0,0-1.83-.85c-.77-.22-1.6-.43-2.5-.63s-1.81-.44-2.72-.72a11.52,11.52,0,0,1-2.52-1.13A5.4,5.4,0,0,1,158,92.44a5.58,5.58,0,0,1-.68-2.88,6.23,6.23,0,0,1,1-3.44,6.87,6.87,0,0,1,3.06-2.48,12.62,12.62,0,0,1,5.17-.93,17.25,17.25,0,0,1,4.11.5,12.15,12.15,0,0,1,3.53,1.45l-1.6,3.84a12.84,12.84,0,0,0-3.05-1.28,11.68,11.68,0,0,0-3-.42,7.31,7.31,0,0,0-2.42.33,2.81,2.81,0,0,0-1.33.89,2,2,0,0,0-.43,1.26A1.71,1.71,0,0,0,163,90.7a5.18,5.18,0,0,0,1.83.83c.75.2,1.59.4,2.51.6a26.41,26.41,0,0,1,2.74.74A11.9,11.9,0,0,1,172.59,94a5.12,5.12,0,0,1,2.55,4.67,5.91,5.91,0,0,1-1,3.39,7.11,7.11,0,0,1-3.09,2.49A12.51,12.51,0,0,1,165.83,105.47Z"/><path d="M188.87,105.35a10.73,10.73,0,0,1-5.06-1.14,8.31,8.31,0,0,1-3.36-3.09,8.44,8.44,0,0,1-1.2-4.48,8.86,8.86,0,0,1,1.15-4.5,8,8,0,0,1,3.21-3.09,9.5,9.5,0,0,1,4.63-1.12A9.36,9.36,0,0,1,192.72,89a8,8,0,0,1,3.16,3,8.93,8.93,0,0,1,1.17,4.68,5.1,5.1,0,0,1,0,.64c0,.25,0,.47-.06.68H183.21V95.16h11.16l-1.91.85a4.47,4.47,0,0,0-.51-2.3,3.91,3.91,0,0,0-1.47-1.52,4.28,4.28,0,0,0-2.2-.55,4.35,4.35,0,0,0-2.22.55,3.81,3.81,0,0,0-1.49,1.54,4.82,4.82,0,0,0-.54,2.34v.76a4.63,4.63,0,0,0,.63,2.45,4.22,4.22,0,0,0,1.73,1.59,5.92,5.92,0,0,0,2.64.55,6.3,6.3,0,0,0,2.34-.41,5.62,5.62,0,0,0,1.87-1.23l2.61,2.83a7.57,7.57,0,0,1-2.92,2A10.9,10.9,0,0,1,188.87,105.35Z"/><path d="M202.52,105.09V81.77h4.9v23.32Z"/><path d="M222.57,105.35a10.73,10.73,0,0,1-5.06-1.14,8.25,8.25,0,0,1-3.36-3.09,8.44,8.44,0,0,1-1.2-4.48,8.76,8.76,0,0,1,1.15-4.5,8,8,0,0,1,3.21-3.09,9.47,9.47,0,0,1,4.63-1.12A9.36,9.36,0,0,1,226.42,89a8,8,0,0,1,3.16,3,8.93,8.93,0,0,1,1.16,4.68c0,.19,0,.4,0,.64s0,.47-.06.68H216.91V95.16h11.16l-1.91.85a4.47,4.47,0,0,0-.51-2.3,3.86,3.86,0,0,0-1.48-1.52,4.23,4.23,0,0,0-2.2-.55,4.34,4.34,0,0,0-2.21.55,3.9,3.9,0,0,0-1.5,1.54,4.93,4.93,0,0,0-.53,2.34v.76a4.63,4.63,0,0,0,.63,2.45,4.15,4.15,0,0,0,1.73,1.59,5.92,5.92,0,0,0,2.64.55,6.3,6.3,0,0,0,2.34-.41,5.62,5.62,0,0,0,1.87-1.23l2.61,2.83a7.64,7.64,0,0,1-2.92,2A10.9,10.9,0,0,1,222.57,105.35Z"/><path d="M244.39,105.35a10.34,10.34,0,0,1-4.86-1.12A8.35,8.35,0,0,1,235,96.64a8.33,8.33,0,0,1,1.21-4.5,8.68,8.68,0,0,1,3.33-3.08,10.22,10.22,0,0,1,4.86-1.13,9.36,9.36,0,0,1,4.67,1.12,6.39,6.39,0,0,1,2.87,3.16l-3.77,2.07a4.46,4.46,0,0,0-1.67-1.74,4.23,4.23,0,0,0-2.13-.55,4.59,4.59,0,0,0-2.24.55,4,4,0,0,0-1.6,1.58,5,5,0,0,0-.6,2.52,5,5,0,0,0,.6,2.53,4.1,4.1,0,0,0,1.6,1.6,4.59,4.59,0,0,0,2.24.55,4.23,4.23,0,0,0,2.13-.55A4.55,4.55,0,0,0,248.16,99l3.77,2.07a6.52,6.52,0,0,1-2.87,3.14A9.26,9.26,0,0,1,244.39,105.35Z"/><path d="M255.14,92.33V88.56h11.72v3.77Zm8.93,13a6.64,6.64,0,0,1-4.66-1.53,5.86,5.86,0,0,1-1.66-4.54V84.44h4.93V99.18a2.4,2.4,0,0,0,.55,1.67,1.94,1.94,0,0,0,1.5.6,3.21,3.21,0,0,0,2-.63l1.29,3.46a5.3,5.3,0,0,1-1.78.8A8.74,8.74,0,0,1,264.07,105.35Z"/></svg>